<?xml version="1.0" standalone="no"?>
<!DOCTYPE svg PUBLIC "-//W3C//DTD SVG 20010904//EN"
 "http://www.w3.org/TR/2001/REC-SVG-20010904/DTD/svg10.dtd">
<svg version="1.0" xmlns="http://www.w3.org/2000/svg"
 width="838.000000pt" height="838.000000pt" viewBox="0 0 838.000000 838.000000"
 preserveAspectRatio="xMidYMid meet">
<metadata>
Created by potrace 1.14, written by Peter Selinger 2001-2017
</metadata>
<g transform="translate(0.000000,838.000000) scale(0.100000,-0.100000)"
fill="#000000" stroke="none">
<path d="M3887 8362 c-63 -23 -97 -56 -97 -93 0 -57 56 -85 110 -54 14 8 42
14 63 15 l38 0 62 -127 c52 -107 67 -131 95 -145 31 -15 38 -15 80 -1 87 28
93 27 147 -22 28 -25 53 -45 57 -45 7 0 69 -72 188 -221 151 -188 187 -216
236 -184 18 12 24 25 24 52 0 30 -9 46 -52 94 -29 32 -81 93 -116 136 -34 43
-85 106 -112 140 -51 63 -166 165 -223 196 -39 21 -96 22 -143 2 l-35 -14 -30
67 c-49 112 -76 156 -113 186 -44 36 -110 43 -179 18z"/>
<path d="M1854 8316 c-11 -8 -29 -33 -39 -56 -15 -34 -23 -40 -39 -36 -69 19
-93 18 -115 -5 -23 -25 -27 -67 -8 -92 16 -21 90 -47 136 -47 46 0 95 30 116
70 11 22 21 30 32 25 9 -3 42 -8 73 -12 54 -5 57 -4 83 27 29 34 33 59 17 90
-15 29 -45 41 -72 31 -15 -5 -39 -4 -68 5 -58 18 -91 18 -116 0z"/>
<path d="M1031 7877 c-47 -23 -88 -57 -155 -128 -50 -52 -112 -110 -137 -127
-66 -44 -125 -116 -162 -194 -28 -57 -36 -67 -64 -73 -34 -6 -89 -61 -98 -98
-3 -12 -18 -76 -33 -142 l-27 -120 -95 0 c-82 0 -99 -3 -126 -22 -49 -35 -75
-87 -108 -218 -16 -62 -23 -227 -11 -256 10 -25 52 -41 75 -29 31 17 42 47 47
134 5 94 28 203 49 230 12 17 25 19 102 17 146 -3 157 7 203 181 16 62 34 130
40 151 7 27 15 37 30 37 35 0 98 46 99 73 0 4 14 36 31 70 35 72 70 112 119
137 20 10 77 64 129 119 73 79 108 109 164 138 80 43 98 72 75 120 -19 41 -66
41 -147 0z"/>
<path d="M2435 7850 c-131 -15 -329 -94 -401 -161 -11 -10 -33 -19 -49 -19
-34 0 -150 -34 -228 -66 -322 -135 -551 -311 -809 -622 -198 -237 -282 -382
-430 -742 -148 -360 -204 -539 -278 -886 -58 -273 -82 -519 -81 -850 0 -258
20 -381 90 -571 76 -207 162 -327 283 -398 73 -43 219 -85 318 -92 73 -5 76
-4 103 25 24 25 28 36 22 61 -10 44 -37 58 -135 65 -144 11 -293 79 -356 161
-58 77 -134 267 -174 435 -19 84 -22 122 -22 330 0 329 20 526 82 813 51 236
68 304 69 277 0 -8 -6 -55 -14 -105 -8 -49 -15 -100 -15 -113 l0 -23 32 22
c50 36 132 38 199 4 55 -27 103 -66 120 -97 5 -9 5 -48 -1 -95 -34 -277 -32
-536 6 -693 l18 -73 -34 -28 c-65 -54 -158 -72 -227 -44 -20 8 -38 13 -41 10
-10 -10 79 -260 126 -355 44 -89 96 -165 174 -252 25 -27 74 -55 200 -113 166
-76 167 -76 198 -60 18 9 33 15 35 13 1 -2 25 -55 52 -119 103 -242 196 -382
393 -591 l120 -128 0 -91 c0 -107 29 -207 86 -297 43 -69 63 -86 133 -118 51
-24 63 -25 180 -21 205 6 368 44 541 125 99 46 161 86 276 180 52 42 114 87
137 99 54 27 182 181 202 241 9 30 63 64 88 56 12 -3 73 -31 135 -61 75 -37
112 -61 112 -72 0 -18 -13 -67 -95 -381 -83 -319 -185 -635 -245 -762 -37 -79
-7 -71 -320 -88 -113 -6 -233 -17 -267 -24 l-63 -14 -80 62 c-55 42 -92 80
-119 122 -55 86 -108 115 -222 122 -76 4 -99 0 -199 -29 -95 -28 -119 -39
-160 -76 -60 -54 -102 -119 -130 -203 -32 -93 -40 -185 -31 -356 l7 -149 -28
-39 c-112 -156 -91 -359 72 -689 69 -140 107 -186 199 -241 99 -59 86 -58 588
-46 553 13 915 25 1163 39 102 6 269 16 372 21 116 6 201 15 221 23 42 18 85
69 92 110 3 18 16 93 29 167 14 74 35 201 47 282 30 189 27 187 210 143 135
-34 182 -51 309 -118 190 -99 238 -104 535 -51 104 19 197 28 303 31 l152 4
22 30 c12 16 28 29 35 29 7 0 18 10 24 22 16 30 66 204 74 261 8 53 13 54 79
32 25 -9 105 -24 178 -35 313 -46 531 -81 648 -105 69 -14 199 -39 290 -55
416 -76 591 -123 737 -200 27 -14 69 -23 116 -27 l75 -6 46 43 46 43 -2 2000
-3 2000 -65 19 c-227 65 -487 127 -690 164 -482 87 -528 93 -797 106 -300 13
-863 -1 -1043 -27 -58 -8 -122 -17 -143 -20 l-38 -5 17 30 c10 16 26 32 35 35
18 6 69 67 69 83 0 5 6 15 14 22 8 6 31 44 52 83 20 40 39 75 43 79 4 4 22 2
40 -5 31 -11 34 -10 57 16 19 23 24 39 24 85 0 31 -5 76 -10 100 -9 39 -7 51
26 130 19 48 45 107 56 132 11 25 28 72 38 106 10 34 29 72 44 87 34 34 33 66
-5 137 -95 178 -414 420 -624 473 -127 33 -205 39 -280 23 -155 -33 -272 -93
-367 -186 l-66 -66 -6 29 c-3 16 -6 46 -6 65 0 61 -48 197 -114 325 -97 188
-222 404 -284 491 -128 178 -333 348 -537 444 -49 24 -98 47 -108 53 -64 35
-294 104 -432 130 -75 13 -732 20 -840 9z m695 -146 c200 -20 355 -55 464
-103 23 -10 69 -31 104 -46 34 -15 60 -30 58 -32 -2 -3 -39 5 -83 16 -43 11
-118 28 -168 37 -49 8 -107 20 -128 26 -20 6 -39 9 -42 7 -2 -3 4 -29 15 -57
24 -63 26 -158 4 -210 -46 -112 -164 -160 -349 -141 -141 15 -266 78 -324 166
-41 61 -54 113 -49 190 5 73 5 73 -100 48 -69 -16 -82 -14 -82 15 0 20 -44 60
-67 60 -29 0 -63 -47 -63 -89 0 -40 0 -40 -57 -56 -31 -9 -89 -30 -130 -46
-87 -34 -121 -36 -157 -8 -39 30 -32 39 29 39 45 0 60 4 78 23 56 57 156 112
250 138 135 36 549 48 797 23z m-741 -494 c6 -49 27 -154 46 -232 61 -255 85
-410 84 -537 -2 -177 -13 -198 -93 -167 -88 34 -138 77 -176 151 -31 61 -35
78 -38 161 -5 110 36 330 95 522 20 64 41 134 46 155 6 20 14 37 18 37 3 0 12
-40 18 -90z m608 -758 c62 -200 73 -254 73 -347 0 -66 -4 -87 -19 -106 l-18
-23 -68 33 c-80 40 -95 66 -95 170 0 92 61 411 78 411 4 0 26 -62 49 -138z
m2089 -698 c83 -62 246 -239 337 -367 62 -87 92 -155 102 -239 6 -48 4 -64
-14 -98 -25 -48 -26 -68 -6 -97 15 -21 14 -22 -22 -32 -21 -5 -105 -19 -188
-31 -82 -11 -163 -25 -180 -30 -16 -4 -72 -16 -124 -25 -51 -9 -105 -21 -119
-26 -13 -5 -27 -8 -29 -5 -2 2 12 49 31 104 67 192 81 282 81 512 0 113 -4
243 -8 289 l-9 84 54 -5 c40 -3 65 -12 94 -34z m-3832 -388 c43 -18 81 -68
108 -142 30 -81 32 -302 4 -382 -23 -69 -79 -128 -129 -137 -82 -16 -175 67
-213 188 -21 72 -29 229 -15 299 15 70 70 144 126 169 48 22 75 23 119 5z
m2271 -204 c28 -15 84 -61 126 -103 150 -150 200 -330 153 -556 -23 -112 -68
-197 -143 -271 -35 -35 -74 -68 -87 -72 -13 -5 -30 -20 -39 -34 -22 -33 -6
-88 31 -105 29 -13 78 5 110 40 11 12 30 19 56 19 25 0 53 9 79 27 23 15 43
22 48 17 4 -5 16 -40 26 -78 29 -111 79 -138 132 -71 15 19 31 35 35 35 4 0
-24 -64 -61 -142 -113 -238 -126 -279 -250 -776 -16 -62 -31 -115 -34 -118 -3
-3 -40 13 -84 34 -114 58 -202 92 -236 92 -22 0 -43 -14 -85 -55 -31 -31 -58
-51 -60 -46 -2 6 -31 -23 -64 -64 -33 -42 -110 -121 -171 -176 -62 -56 -123
-114 -137 -129 -14 -15 -41 -39 -60 -53 -107 -78 -420 -193 -448 -165 -7 7
-27 4 -59 -8 -36 -14 -74 -19 -149 -18 -118 0 -139 9 -185 82 -56 88 -69 141
-69 273 0 117 -1 120 -26 142 -127 107 -304 312 -382 440 -32 52 -222 468
-222 484 0 11 245 252 345 340 119 104 215 181 434 345 209 157 213 160 241
153 61 -14 206 -17 245 -3 51 17 73 56 55 99 -14 33 -44 44 -95 35 -19 -4 -35
-3 -35 2 0 14 145 83 177 84 15 0 60 -11 98 -25 81 -31 183 -36 257 -13 l46
13 4 -63 c6 -91 49 -129 104 -90 17 13 20 31 24 168 5 141 8 157 33 205 70
136 188 174 322 105z m-2631 -337 c1 -86 -3 -137 -11 -150 -10 -16 -12 13 -12
155 0 138 3 170 12 150 6 -14 11 -82 11 -155z m1450 -3146 c14 -11 26 -27 26
-36 0 -8 20 -38 44 -65 l45 -51 -29 -27 -29 -27 6 -111 c3 -62 3 -112 -2 -112
-4 0 -36 27 -71 59 -34 33 -72 62 -82 65 -26 9 -36 76 -21 145 13 63 6 96 -25
116 -29 20 -68 5 -85 -32 -14 -31 -33 -161 -26 -182 3 -12 -12 -21 -68 -38
-84 -25 -128 -63 -151 -126 l-14 -42 -1 90 c0 152 44 269 123 330 48 36 153
63 252 64 68 1 86 -2 108 -20z m239 -235 c69 -51 44 -48 242 -23 104 13 305
28 377 29 l56 0 -5 -80 c-9 -131 8 -153 166 -214 124 -49 151 -70 151 -115 0
-68 12 -65 -327 -72 -169 -4 -394 -7 -499 -8 l-191 -1 -37 87 c-32 77 -35 88
-22 102 45 50 62 217 32 304 -8 20 -12 37 -10 37 3 0 32 -21 67 -46z m970 -78
c12 -10 17 -27 17 -65 0 -28 -1 -51 -3 -51 -1 0 -45 17 -97 39 -73 29 -95 43
-95 57 0 13 10 21 30 25 53 11 129 9 148 -5z m-1303 -167 c80 -66 111 -111
155 -222 44 -111 49 -119 101 -145 40 -20 45 -21 545 -12 277 5 524 14 549 19
25 6 48 10 51 11 4 0 18 12 33 26 26 27 33 61 18 92 -5 9 -6 65 -3 124 l6 108
190 -156 c105 -85 215 -172 245 -192 67 -44 182 -92 222 -92 l30 0 -7 -47 c-4
-27 -22 -124 -40 -218 -18 -93 -36 -189 -40 -211 -5 -35 -11 -43 -33 -48 -28
-7 -204 -16 -662 -35 -151 -6 -365 -16 -475 -22 -286 -15 -975 -31 -1009 -23
-35 7 -122 62 -153 95 -72 79 -203 412 -203 516 0 72 43 145 133 228 71 65 79
76 83 116 11 104 14 110 47 124 18 8 60 14 94 15 60 0 64 -2 123 -51z"/>
<path d="M2107 4388 c-22 -17 -73 -144 -164 -412 -62 -183 -79 -248 -103 -393
-32 -190 -30 -216 16 -234 23 -8 35 -5 83 24 31 19 162 90 291 157 129 67 241
130 248 138 18 23 15 76 -6 95 -10 10 -30 17 -44 17 -15 0 -121 -50 -238 -111
-116 -61 -214 -109 -217 -106 -8 9 14 125 43 224 14 48 61 185 105 306 43 120
79 227 79 236 0 25 -38 71 -59 71 -9 0 -25 -6 -34 -12z"/>
<path d="M7004 5911 c-57 -26 -124 -88 -145 -136 -37 -80 -15 -165 41 -165 29
0 60 35 60 68 0 43 81 112 132 112 20 0 38 -13 75 -57 112 -133 126 -145 175
-150 36 -4 58 0 103 21 65 29 58 31 195 -44 69 -38 80 -41 135 -38 43 3 70 10
92 26 17 12 45 25 63 28 26 6 37 2 63 -24 42 -40 108 -68 207 -86 56 -11 95
-25 125 -46 24 -16 46 -30 49 -30 3 0 6 35 6 78 0 99 -7 107 -131 132 -112 22
-165 43 -179 70 -31 58 -145 67 -236 19 -71 -37 -83 -35 -194 27 -73 42 -93
48 -140 48 -40 0 -67 -6 -98 -24 -26 -14 -46 -20 -51 -14 -5 5 -41 47 -81 94
-40 47 -82 90 -94 97 -32 19 -125 15 -172 -6z"/>
</g>
</svg>
